<?xml version="1.0" standalone="no"?>
<!DOCTYPE svg PUBLIC "-//W3C//DTD SVG 20010904//EN"
 "http://www.w3.org/TR/2001/REC-SVG-20010904/DTD/svg10.dtd">
<svg version="1.0" xmlns="http://www.w3.org/2000/svg"
 width="746.000000pt" height="746.000000pt" viewBox="0 0 746.000000 746.000000"
 preserveAspectRatio="xMidYMid meet">
<metadata>
Created by potrace 1.14, written by Peter Selinger 2001-2017
</metadata>
<g transform="translate(0.000000,746.000000) scale(0.100000,-0.100000)"
fill="#000000" stroke="none">
<path d="M3455 7450 c-912 -76 -1725 -450 -2360 -1085 -612 -611 -976 -1379
-1076 -2265 -17 -149 -17 -591 0 -740 100 -886 464 -1654 1076 -2265 804 -805
1926 -1198 3055 -1070 1270 144 2381 931 2936 2080 193 400 307 803 356 1255
16 152 16 583 0 740 -79 749 -368 1440 -847 2017 -115 138 -340 363 -478 478
-566 469 -1237 756 -1967 840 -164 19 -544 27 -695 15z m713 -54 c158 -21 329
-53 447 -82 827 -207 1556 -691 2067 -1371 353 -471 591 -1024 687 -1598 39
-234 46 -326 46 -615 0 -289 -7 -381 -46 -615 -211 -1265 -1087 -2345 -2284
-2818 -306 -120 -602 -194 -965 -239 -163 -20 -651 -17 -825 5 -711 92 -1325
350 -1882 793 -126 100 -457 431 -557 557 -538 677 -816 1465 -816 2317 0 852
278 1640 816 2317 100 126 431 457 557 557 489 389 1034 640 1637 755 93 17
290 43 420 55 101 9 590 -4 698 -18z"/>
<path d="M2340 5593 c-56 -9 -159 -47 -218 -79 -77 -43 -179 -137 -226 -209
-65 -98 -97 -194 -103 -314 -10 -195 -100 49 937 -2546 95 -236 174 -436 177
-442 10 -24 22 -13 28 24 10 58 51 173 101 281 25 53 81 176 124 272 43 96 94
211 115 255 20 44 65 143 100 220 34 77 74 165 88 195 14 30 64 140 111 244
l86 189 -136 346 c-76 190 -154 387 -175 436 -20 50 -94 234 -164 410 -69 176
-142 349 -161 384 -90 164 -247 284 -429 327 -55 13 -196 17 -255 7z"/>
<path d="M4905 5534 c-80 -17 -208 -77 -278 -129 -55 -41 -129 -132 -172 -214
-17 -31 -64 -130 -104 -221 -41 -91 -89 -196 -106 -235 -36 -78 -52 -114 -120
-265 -26 -58 -65 -143 -86 -188 -21 -46 -39 -85 -39 -87 0 -2 -17 -41 -39 -87
-21 -45 -66 -146 -101 -223 -34 -77 -76 -169 -92 -205 -17 -36 -70 -153 -118
-260 -48 -107 -186 -411 -305 -675 -240 -530 -285 -634 -309 -714 -20 -68 -21
-224 -2 -306 55 -232 229 -416 461 -487 43 -13 92 -18 174 -18 175 0 290 35
407 123 115 87 157 157 354 592 87 191 107 236 168 370 27 61 62 137 77 170
15 33 49 107 75 165 26 58 89 197 140 310 80 177 200 443 427 945 30 66 65
143 77 170 39 83 76 165 118 260 45 102 66 149 114 253 106 231 94 470 -36
672 -76 118 -242 238 -383 276 -82 22 -221 26 -302 8z"/>
<path d="M907 4920 c-67 -12 -164 -60 -218 -108 -99 -88 -156 -228 -146 -356
3 -39 14 -93 25 -121 91 -239 726 -1815 732 -1815 4 0 13 15 20 33 18 46 42
101 218 487 43 96 118 261 165 366 48 105 87 203 87 217 0 23 -156 432 -235
617 -13 30 -54 132 -91 225 -90 230 -126 296 -190 353 -90 81 -244 123 -367
102z"/>
<path d="M6365 4821 c-83 -21 -186 -94 -236 -167 -17 -25 -56 -100 -86 -167
-30 -67 -65 -144 -78 -172 -13 -27 -66 -145 -118 -260 -114 -254 -129 -286
-178 -394 -22 -46 -39 -89 -39 -94 0 -17 443 -1127 449 -1127 4 0 32 58 63
128 116 258 367 809 398 877 18 39 70 153 115 255 45 102 119 266 164 364 45
98 86 199 92 222 6 24 10 86 7 137 -3 77 -9 103 -35 160 -42 89 -121 168 -210
210 -62 29 -78 32 -173 34 -58 1 -118 -2 -135 -6z"/>
<path d="M1998 3823 c-61 -132 -288 -635 -505 -1121 -87 -195 -95 -219 -100
-290 -15 -218 118 -400 334 -456 122 -32 219 -16 333 52 105 63 147 131 295
467 29 66 71 160 94 208 22 49 41 91 41 94 0 5 -169 432 -189 478 -5 11 -65
161 -133 332 -67 172 -126 313 -129 313 -3 0 -21 -35 -41 -77z"/>
<path d="M5364 3764 c-20 -43 -87 -191 -149 -329 -148 -328 -155 -344 -237
-522 -55 -119 -69 -160 -65 -185 2 -18 31 -98 64 -178 33 -80 83 -206 113
-280 29 -74 67 -157 85 -185 154 -242 490 -275 685 -69 28 30 65 84 83 121 30
64 32 74 32 183 l0 115 -52 125 c-28 69 -154 382 -278 695 -125 314 -231 574
-236 579 -5 5 -24 -25 -45 -70z"/>
</g>
</svg>
